HIERARCHY
ROOT SimulationBone
{
	OFFSET 0.000000 0.000000 0.000000
	CHANNELS 6 Xposition Yposition Zposition Zrotation Yrotation Xrotation 
	JOINT Hips
	{
		OFFSET 0.000000 0.000000 0.000000
		CHANNELS 6 Xposition Yposition Zposition Zrotation Yrotation Xrotation 
		JOINT RightUpLeg
		{
			OFFSET 0.103456 1.857840 10.548501
			CHANNELS 3 Zrotation Yrotation Xrotation
			JOINT RightLeg
			{
				OFFSET 43.499992 -0.000038 -0.000006
				CHANNELS 3 Zrotation Yrotation Xrotation
				JOINT RightFoot
				{
					OFFSET 42.372196 0.000031 0.000002
					CHANNELS 3 Zrotation Yrotation Xrotation
					JOINT RightToe
					{
						OFFSET 17.299974 -0.000010 -0.000017
						CHANNELS 3 Zrotation Yrotation Xrotation
						End Site
						{
							OFFSET 0.000000 0.000000 0.000000
						}
					}
				}
			}
		}
		JOINT LeftUpLeg
		{
			OFFSET 0.103462 1.857831 -10.548510
			CHANNELS 3 Zrotation Yrotation Xrotation
			JOINT LeftLeg
			{
				OFFSET 43.500046 -0.000015 0.000008
				CHANNELS 3 Zrotation Yrotation Xrotation
				JOINT LeftFoot
				{
					OFFSET 42.372265 -0.000015 0.000004
					CHANNELS 3 Zrotation Yrotation Xrotation
					JOINT LeftToe
					{
						OFFSET 17.299995 -0.000004 0.000013
						CHANNELS 3 Zrotation Yrotation Xrotation
						End Site
						{
							OFFSET 0.000000 0.000000 0.000000
						}
					}
				}
			}
		}
		JOINT Spine
		{
			OFFSET 6.901966 -2.603716 -0.000002
			CHANNELS 3 Zrotation Yrotation Xrotation
			JOINT Spine1
			{
				OFFSET 12.588102 -0.000001 0.000005
				CHANNELS 3 Zrotation Yrotation Xrotation
				JOINT Spine2
				{
					OFFSET 12.343201 -0.000023 -0.000011
					CHANNELS 3 Zrotation Yrotation Xrotation
					JOINT Neck
					{
						OFFSET 25.832901 0.000011 0.000007
						CHANNELS 3 Zrotation Yrotation Xrotation
						JOINT Head
						{
							OFFSET 11.766600 -0.000002 0.000002
							CHANNELS 3 Zrotation Yrotation Xrotation
							End Site
							{
								OFFSET 0.000000 0.000000 0.000000
							}
						}
					}
					JOINT RightShoulder
					{
						OFFSET 19.745907 -1.480350 6.000119
						CHANNELS 3 Zrotation Yrotation Xrotation
						JOINT RightArm
						{
							OFFSET 11.284122 -0.000013 -0.000023
							CHANNELS 3 Zrotation Yrotation Xrotation
							JOINT RightForeArm
							{
								OFFSET 33.000057 0.000005 0.000025
								CHANNELS 3 Zrotation Yrotation Xrotation
								JOINT RightHand
								{
									OFFSET 25.199997 0.000020 0.000019
									CHANNELS 3 Zrotation Yrotation Xrotation
									End Site
									{
										OFFSET 0.000000 0.000000 0.000000
									}
								}
							}
						}
					}
					JOINT LeftShoulder
					{
						OFFSET 19.746096 -1.480352 -6.000062
						CHANNELS 3 Zrotation Yrotation Xrotation
						JOINT LeftArm
						{
							OFFSET 11.284150 0.000007 -0.000012
							CHANNELS 3 Zrotation Yrotation Xrotation
							JOINT LeftForeArm
							{
								OFFSET 33.000092 0.000019 0.000012
								CHANNELS 3 Zrotation Yrotation Xrotation
								JOINT LeftHand
								{
									OFFSET 25.199797 0.000118 0.000427
									CHANNELS 3 Zrotation Yrotation Xrotation
									End Site
									{
										OFFSET 0.000000 0.000000 0.000000
									}
								}
							}
						}
					}
				}
			}
		}
	}
}
MOTION
Frames: 6
Frame Time: 0.033333
-279.758935 0.000000 -480.575874 0.000000 83.231489 0.000000 -5.093566 65.464577 -0.905358 77.180686 -1.582154 178.136656 166.333056 -8.251403 -177.566067 -92.805311 4.221955 4.482710 86.046409 -7.085403 -18.170282 21.454565 0.003108 0.000015 101.269009 1.521796 -153.579385 -52.869564 0.737145 9.511162 66.536219 -14.284262 -19.844891 21.454551 -0.003092 0.000000 8.091941 0.304044 -1.255872 6.163792 0.674286 -2.493841 5.846020 0.659087 -2.497870 30.293272 0.599716 2.917262 -25.204003 11.237881 -1.874746 -13.365939 -85.319520 -168.625008 -60.601140 -1.610263 -63.083381 -87.563640 -4.414953 2.547069 -2.330123 -17.102106 -7.068844 84.107899 82.605032 -94.814056 -26.619108 -45.989843 49.191074 -98.928323 0.202752 -2.716484 -7.259587 21.592263 -5.174391 
-276.646068 0.000000 -491.221226 0.000000 79.762650 0.000000 -7.277498 65.302963 -1.240186 79.834144 -1.192661 -178.580370 165.580328 -10.585606 -176.171889 -99.654407 4.058129 3.461743 90.969582 -5.356886 -17.332223 21.454548 0.003110 0.000014 102.282609 3.520287 -153.611870 -67.741666 0.838847 9.099463 75.196244 -13.341113 -23.707465 21.454555 -0.003096 -0.000001 9.103304 0.726964 -0.963726 8.182050 1.520199 -1.873845 7.864010 1.508718 -1.882988 29.402322 -0.334312 1.768230 -25.304577 11.660395 -3.293152 47.347950 -85.772792 131.116929 -55.949949 7.172206 -62.915338 -91.031204 -2.020257 2.534228 -2.903006 -16.624957 -4.842365 89.122057 85.038956 -89.608926 -26.621178 -48.492229 42.843133 -90.247563 3.766477 -2.579528 -6.553175 17.781363 -10.568905 
-273.510857 0.000000 -501.223490 0.000000 76.463992 0.000000 -9.527554 66.038689 -1.178897 79.441730 0.537597 -178.280859 157.828104 -11.252397 -173.842917 -106.534402 4.222242 -3.016858 93.754660 0.250972 -12.107217 21.454551 0.003110 0.000023 105.005040 1.628099 -153.192496 -74.974426 3.043135 9.352002 84.438849 -11.523510 -24.345280 21.454548 -0.003088 0.000002 9.642782 1.227219 -0.460428 9.265974 2.487339 -0.821297 8.947591 2.482210 -0.836320 25.150744 -1.189254 1.849715 -20.846204 12.616870 -3.089682 124.746998 -86.524242 53.866984 -55.595554 15.016162 -57.460469 -88.416232 -4.462168 2.588254 -3.901446 -15.048018 -0.504406 113.354086 84.178933 -65.467800 -27.751252 -45.878886 26.061785 -75.188526 16.331971 -2.803828 -2.367723 19.685739 -3.732998 
-270.353915 0.000000 -510.601771 0.000000 73.321540 0.000000 -12.133311 68.077019 -1.273901 76.849927 -1.379738 -177.123023 144.967336 -5.158604 -170.353428 -108.832303 4.329891 -9.667556 95.208684 5.202705 -9.467805 21.454551 0.003107 0.000022 107.111218 1.468505 -153.632114 -78.693990 2.047813 9.012085 91.275247 -9.561474 -23.641455 21.454553 -0.003094 0.000001 9.707627 0.606610 -0.325939 9.399726 1.237718 -0.601562 9.081560 1.233928 -0.609036 22.397853 1.489395 1.803596 -19.980902 11.699320 -2.662003 146.976095 -81.082992 31.927019 -51.568700 21.077882 -44.636567 -78.063386 -10.865337 2.580750 -3.532815 -15.112675 1.790956 134.622018 83.627696 -44.168958 -29.875319 -46.553903 15.611456 -61.167698 20.621321 -2.529366 -1.494574 21.111118 -0.523803 
-267.175853 0.000000 -519.375171 0.000000 70.320783 0.000000 -14.046499 70.231857 -1.307836 75.022430 -2.980547 -176.424652 133.074269 -0.342800 -168.068470 -105.733398 4.750928 -13.484613 95.382950 8.040539 -7.525668 21.454557 0.003110 0.000019 111.162879 1.366598 -153.889476 -80.875683 0.874451 8.159314 96.693117 -7.631583 -22.467486 21.454557 -0.003102 0.000002 9.864235 0.021760 -0.111068 9.715568 0.052817 -0.219911 9.397473 0.051347 -0.220233 22.065782 3.509720 1.577149 -21.818735 10.862043 -2.724292 144.996119 -77.316888 34.186046 -46.489409 27.359286 -29.994742 -63.534625 -16.826366 2.391980 -2.816976 -17.383163 -1.953633 147.374049 83.383366 -31.351115 -30.237866 -48.567068 8.258584 -52.319632 18.817917 -2.082645 1.482939 20.688361 5.511933 
-263.977284 0.000000 -527.562795 0.000000 67.447274 0.000000 -15.171542 72.345757 -1.307612 73.915155 -4.570968 -177.620671 123.907541 2.384703 -167.419452 -97.477209 5.130337 -14.112338 95.908205 8.782107 -5.391504 21.454560 0.003104 0.000018 116.121767 0.215004 -156.081174 -82.137232 0.945524 7.542119 99.287188 -6.617372 -21.906679 21.454553 -0.003091 -0.000003 10.192341 -0.697704 0.298403 10.369303 -1.419288 0.533100 10.051129 -1.416154 0.541645 21.214807 4.970071 1.361538 -21.340849 9.798466 -2.404719 142.657981 -75.154361 36.710918 -41.484295 33.157413 -20.820454 -49.245824 -16.567573 1.860271 1.669121 -13.550181 -11.869656 152.956062 83.474508 -25.717815 -29.110638 -51.099480 -0.321145 -47.993516 17.759479 -1.869962 1.503192 19.872661 8.351599 
